<svg width="63" height="63" viewBox="0 0 63 63" fill="none" xmlns="http://www.w3.org/2000/svg">
<g filter="url(#filter0_d_209_6)">
<path d="M32.6289 54.0835H29.4595C28.7463 53.9978 28.0309 53.9258 27.3188 53.8253C21.9864 53.0718 17.2721 50.9427 13.2361 47.3787C8.48259 43.1818 5.50901 37.9595 4.41588 31.697C4.2381 30.6811 4.13651 29.6515 4 28.6282C4 27.5721 4 26.516 4 25.4599C4.03175 25.2917 4.08042 25.1234 4.09206 24.9541C4.25503 22.517 4.76509 20.1509 5.59684 17.8598C10.3249 4.83323 24.0627 -2.50759 37.5326 0.78345C51.4291 4.1782 60.3371 18.0789 57.6122 32.115C56.5678 37.496 54.1286 42.1521 50.2735 46.0421C46.2322 50.1205 41.3771 52.6888 35.704 53.6666C34.685 53.8422 33.6532 53.9459 32.6278 54.0835H32.6289ZM54.918 27.0451C54.918 13.8608 44.2311 3.17395 31.0437 3.17395C17.8573 3.17395 7.16935 13.8587 7.16829 27.0441C7.16829 40.2283 17.8552 50.9142 31.0416 50.9152C44.229 50.9152 54.9159 40.2304 54.917 27.0451H54.918Z" fill="#FF0000"/>
<path d="M31.1118 6.44805C42.4495 6.50837 51.7004 15.8217 51.64 27.1149C51.5797 38.4495 42.2632 47.7004 30.97 47.64C19.6344 47.5797 10.3814 38.2643 10.4417 26.9731C10.502 15.6376 19.8175 6.38773 31.1118 6.44805ZM48.4707 27.0514C48.4802 17.4767 40.6124 9.60999 31.0356 9.61845C21.4662 9.62692 13.6587 17.4217 13.6132 27.0112C13.5677 36.5658 21.4217 44.4432 31.0218 44.4707C40.587 44.4982 48.4612 36.6378 48.4707 27.0514Z" fill="#FF0000"/>
<path d="M29.2969 36.0557C27.9593 35.8123 26.7328 35.3668 25.7603 34.3933C24.9794 33.6112 25.0016 32.5382 25.7984 31.7784C26.19 31.4049 26.6387 31.334 27.0916 31.644C27.5106 31.9308 27.8778 32.2927 28.2916 32.5901C29.3551 33.3552 30.5371 33.57 31.7985 33.2282C32.5869 33.0144 33.208 32.5753 33.3657 31.7012C33.5456 30.7096 33.1731 29.9086 32.3657 29.3731C31.6821 28.9202 30.9138 28.5953 30.1858 28.2069C29.2884 27.7276 28.354 27.3022 27.5085 26.7434C25.8461 25.645 25.4217 23.9826 25.6736 22.1169C25.9085 20.3772 26.9201 19.2164 28.5477 18.5825C28.6948 18.5254 28.8408 18.4534 28.9942 18.4238C29.3001 18.3656 29.3688 18.1867 29.3625 17.8968C29.3445 17.1232 29.3477 16.3486 29.3593 15.574C29.3752 14.5867 30.0398 13.9105 30.9625 13.92C31.8631 13.9295 32.5064 14.5973 32.5202 15.5624C32.5329 16.3867 32.5223 17.2121 32.5223 17.9994C33.3541 18.2068 34.1562 18.3433 34.9118 18.6111C36.0853 19.0259 36.4038 19.8619 35.8927 20.9455C35.5425 21.6873 35.0684 21.8873 34.3086 21.5307C33.2895 21.0524 32.2472 20.6894 31.1085 20.827C30.6122 20.8873 30.0916 20.9995 29.6535 21.2259C28.5625 21.791 28.4471 23.1963 29.4239 23.9392C29.8937 24.2958 30.4429 24.5529 30.9731 24.8249C32.0038 25.354 33.0705 25.8164 34.0768 26.3858C35.9033 27.4196 36.6345 29.0842 36.5509 31.1181C36.4451 33.7044 35.3393 35.1128 32.862 35.8864C32.5784 35.9753 32.5128 36.1012 32.5181 36.3658C32.5318 37.0515 32.5308 37.7383 32.5191 38.4251C32.5033 39.3859 31.8567 40.06 30.9604 40.0695C30.044 40.0801 29.3741 39.3954 29.3561 38.4124C29.3424 37.6737 29.3477 36.934 29.3434 36.1954C29.3434 36.1626 29.3223 36.1308 29.2958 36.0557H29.2969Z" fill="#FF0000"/>
</g>
<defs>
<filter id="filter0_d_209_6" x="0" y="0" width="62.1016" height="62.0835" filterUnits="userSpaceOnUse" color-interpolation-filters="sRGB">
<feFlood flood-opacity="0" result="BackgroundImageFix"/>
<feColorMatrix in="SourceAlpha" type="matrix" values="0 0 0 0 0 0 0 0 0 0 0 0 0 0 0 0 0 0 127 0" result="hardAlpha"/>
<feOffset dy="4"/>
<feGaussianBlur stdDeviation="2"/>
<feComposite in2="hardAlpha" operator="out"/>
<feColorMatrix type="matrix" values="0 0 0 0 0 0 0 0 0 0 0 0 0 0 0 0 0 0 0.25 0"/>
<feBlend mode="normal" in2="BackgroundImageFix" result="effect1_dropShadow_209_6"/>
<feBlend mode="normal" in="SourceGraphic" in2="effect1_dropShadow_209_6" result="shape"/>
</filter>
</defs>
</svg>
