<svg width="15" height="21" viewBox="0 0 15 21" fill="none" xmlns="http://www.w3.org/2000/svg">
<path d="M14.25 20.998C14.0666 20.9986 13.8893 20.9319 13.7517 20.8106L7.5 15.2522L1.24828 20.8106C1.1401 20.9067 1.00639 20.9695 0.863299 20.9914C0.720208 21.0133 0.573846 20.9933 0.441874 20.9338C0.309902 20.8743 0.197959 20.7779 0.119552 20.6563C0.0411455 20.5346 -0.000374336 20.3929 2.5431e-06 20.2481V2.99972C0.000871069 2.20441 0.317221 1.44193 0.879641 0.879557C1.44206 0.317188 2.20462 0.000868445 3 0H12C12.7954 0.000868445 13.5579 0.317188 14.1204 0.879557C14.6828 1.44193 14.9991 2.20441 15 2.99972V20.2481C15 20.447 14.921 20.6378 14.7803 20.7784C14.6397 20.919 14.4489 20.998 14.25 20.998Z" fill="white"/>
</svg>
