<svg width="20" height="30" viewBox="0 0 20 30" fill="none" xmlns="http://www.w3.org/2000/svg">
<path d="M19 29.2472L18.9976 29.2472C18.9524 29.2474 18.8998 29.2303 18.8515 29.185C18.8512 29.1847 18.851 29.1845 18.8507 29.1842L10.5173 21.2458L10 20.753L9.4827 21.2458L1.14715 29.1863C1.14713 29.1863 1.1471 29.1863 1.14707 29.1863C1.10853 29.223 1.0671 29.2415 1.02989 29.2476C0.993021 29.2536 0.953901 29.2487 0.915227 29.23C0.875845 29.211 0.834467 29.1762 0.802105 29.1224L0.159403 29.509L0.802103 29.1224C0.769516 29.0682 0.749824 29.0004 0.750003 28.9277V28.9259V4.28569C0.751072 3.3323 1.10553 2.42778 1.72112 1.76827C2.33508 1.11053 3.15601 0.75111 4.00045 0.75H15.9996C16.844 0.75111 17.6649 1.11053 18.2789 1.76827C18.8946 2.42787 19.249 3.33255 19.25 4.28608V28.9259C19.25 29.0271 19.212 29.1147 19.1588 29.1717C19.1073 29.2268 19.049 29.2472 19 29.2472Z" stroke="white" stroke-width="1.5"/>
</svg>
