<svg width="21" height="21" viewBox="0 0 21 21" fill="none" xmlns="http://www.w3.org/2000/svg">
<g clip-path="url(#clip0_111_4698)">
<path d="M16.3028 0C16.4171 0.0233041 16.5325 0.0435685 16.6458 0.0699122C17.4336 0.252292 18.0088 0.705708 18.3503 1.43979C18.4136 1.57556 18.4819 1.62318 18.6291 1.62065C19.1335 1.61153 19.6385 1.61457 20.1434 1.61811C20.6352 1.62166 20.9954 1.96666 20.9954 2.42565C20.9954 2.88464 20.6352 3.22964 20.1434 3.23369C19.6304 3.23774 19.1169 3.22913 18.6043 3.24078C18.5264 3.2423 18.4116 3.30411 18.3797 3.36997C17.9269 4.31024 17.1801 4.8285 16.1444 4.82445C15.0859 4.82039 14.3351 4.28085 13.902 3.30918C13.8919 3.28638 13.8747 3.26713 13.8539 3.23521H13.5585C9.3859 3.23521 5.21382 3.23015 1.04175 3.2423C0.545921 3.24382 0.197827 3.08829 0 2.6288V2.22452C0.195803 1.763 0.544403 1.58164 1.04024 1.61305C1.43387 1.63787 1.83002 1.61811 2.22517 1.61811C6.01677 1.61811 9.80836 1.61659 13.5995 1.62217C13.7872 1.62217 13.8944 1.58569 13.9784 1.39571C14.2117 0.867823 14.6063 0.478746 15.1355 0.253812C15.4097 0.137291 15.7108 0.083084 15.9997 0.00101322C16.1009 0.00101322 16.2016 0.00101322 16.3028 0.00101322V0ZM16.1454 3.23268C16.5856 3.23572 16.9514 2.87805 16.9575 2.4373C16.964 1.98642 16.5952 1.61558 16.1434 1.61811C15.7042 1.62065 15.343 1.9854 15.3445 2.42565C15.346 2.86792 15.7047 3.22913 16.1449 3.23217L16.1454 3.23268Z" fill="white"/>
<path d="M0 10.31C0.195297 9.84698 0.545415 9.67271 1.04074 9.69804C1.54366 9.72388 2.0491 9.70361 2.56163 9.70361C2.78273 9.15951 3.12576 8.72535 3.63526 8.43304C4.85359 7.73391 6.39573 8.19493 7.00843 9.45892C7.10608 9.66005 7.21334 9.70919 7.42331 9.70868C11.6212 9.70209 15.8186 9.70361 20.0164 9.70412C20.1171 9.70412 20.2198 9.69905 20.3185 9.71476C20.7238 9.78011 21.0192 10.154 20.9949 10.5618C20.9712 10.9595 20.6489 11.2868 20.2456 11.3182C20.1535 11.3253 20.0604 11.3212 19.9684 11.3212C15.7705 11.3212 11.5731 11.3212 7.37525 11.3202C7.22953 11.3202 7.1248 11.3222 7.04233 11.496C6.60367 12.418 5.85436 12.915 4.83993 12.9115C3.81487 12.9079 3.07213 12.3962 2.6274 11.4656C2.61273 11.4352 2.60008 11.4038 2.5849 11.3744C2.57731 11.3597 2.56568 11.3471 2.54746 11.3217C2.05163 11.3217 1.54568 11.301 1.04276 11.3278C0.545921 11.3542 0.198333 11.1753 0.000505951 10.7153V10.311L0 10.31ZM5.65198 10.5112C5.64995 10.0689 5.29123 9.70868 4.85055 9.70513C4.40127 9.70159 4.03192 10.075 4.03951 10.5258C4.0466 10.9656 4.4124 11.3222 4.85359 11.3197C5.29022 11.3172 5.654 10.9489 5.65198 10.5112Z" fill="white"/>
<path d="M0 18.3965C0.195297 17.9335 0.546427 17.7805 1.04074 17.783C3.86698 17.7972 6.69373 17.7901 9.52048 17.7901H9.83012C10.0512 17.246 10.3943 16.8118 10.9037 16.5195C12.1221 15.8204 13.6642 16.2809 14.2769 17.5454C14.3746 17.7465 14.4818 17.7967 14.6918 17.7957C16.5087 17.7866 18.326 17.7881 20.1429 17.7916C20.7657 17.7926 21.1715 18.3732 20.9287 18.9158C20.7754 19.2578 20.4946 19.4092 20.1201 19.4087C18.5805 19.4057 17.0414 19.4077 15.5018 19.4077C15.4178 19.4077 15.3328 19.4153 15.2494 19.4067C14.7297 19.3515 14.2486 19.3677 14.0766 19.9999C13.0161 21.4706 10.7601 21.2883 9.94902 19.6666C9.90804 19.584 9.87009 19.4999 9.82658 19.4082H9.522C6.69525 19.4082 3.86901 19.4006 1.04226 19.4153C0.546427 19.4179 0.197827 19.2613 0 18.8018V18.3975L0 18.3965ZM12.1084 19.4062C12.5456 19.4103 12.9154 19.0475 12.92 18.6103C12.925 18.168 12.5719 17.8018 12.1312 17.7916C11.6814 17.7815 11.307 18.1488 11.307 18.5992C11.307 19.0394 11.6672 19.4016 12.1079 19.4057L12.1084 19.4062Z" fill="white"/>
</g>
<defs>
<clipPath id="clip0_111_4698">
<rect width="21" height="21" fill="white"/>
</clipPath>
</defs>
</svg>
