<svg width="31" height="28" viewBox="0 0 31 28" fill="none" xmlns="http://www.w3.org/2000/svg">
<g clip-path="url(#clip0_111_4689)">
<path d="M0.272558 20.4031C1.04024 23.7769 3.14913 26.1326 6.41572 27.4045C9.26967 28.5163 11.9243 28.0554 14.3127 26.1565C14.8483 25.7308 15.3684 25.2867 15.9189 24.8312C16.0649 24.9898 16.1929 25.1286 16.3209 25.2674C18.6303 27.7744 22.2038 28.5293 25.2322 27.1508C31.4001 24.3427 32.962 16.2777 28.2505 11.4586C26.5662 9.73624 24.82 8.07175 23.1012 6.38208C21.1963 4.50957 19.2952 2.63287 17.3822 0.768745C16.6486 0.054128 15.7487 -0.159752 14.7655 0.116617C13.7537 0.401373 13.1239 1.08244 12.8896 2.09649C12.8367 2.32547 12.8298 2.56493 12.7983 2.8283C12.7368 2.8283 12.6681 2.82704 12.599 2.8283C11.137 2.85723 9.9823 3.98745 9.96011 5.42381C9.95883 5.50852 9.94389 5.56011 9.91104 5.5924C9.84916 5.65363 9.7476 5.64566 9.72456 5.6444C9.51375 5.6335 8.15847 5.85786 7.62122 6.53683C7.22607 7.03631 7.06648 8.04365 7.0861 8.2353C7.08824 8.25501 7.10019 8.34266 7.04727 8.39844C7.01356 8.43409 6.95638 8.44625 6.86933 8.45002C6.06367 8.48483 5.38347 8.78972 4.85432 9.39865C4.50313 9.80293 4.31281 10.2772 4.23472 10.8044C4.18052 10.8082 4.13913 10.8136 4.09774 10.8132C3.62322 10.8052 3.21953 10.97 2.89522 11.3076C0.414658 13.8918 -0.514754 16.944 0.272558 20.4039L0.272558 20.4031ZM5.96083 10.1074C6.49936 9.60121 7.34769 9.6205 7.90073 10.1611C8.94408 11.181 9.98145 12.2068 11.0239 13.228C11.4033 13.5995 11.9713 13.5077 12.1398 13.0472C12.2414 12.7696 12.1629 12.5305 11.9504 12.3225C10.9476 11.3412 9.9567 10.3485 8.9445 9.37726C8.65731 9.10173 8.47467 8.80985 8.42133 8.48609C8.41024 8.41941 8.34708 8.02478 8.51649 7.72912C8.82459 7.19274 9.88799 7.00192 10.703 7.28122C11.6397 7.60204 12.2303 8.79391 13.7849 10.2999C13.9218 10.4328 14.0895 10.5624 14.2675 10.6211C14.5415 10.7117 14.8342 10.5578 14.9712 10.3125C15.1081 10.0671 15.0659 9.75721 14.8487 9.5404C14.3746 9.06734 13.8941 8.60058 13.4166 8.1313C12.8384 7.56304 12.2576 6.9973 11.6832 6.42528C11.1229 5.86709 11.1242 5.0296 11.679 4.49028C12.2205 3.96354 13.0697 3.97571 13.6321 4.52551C14.655 5.52614 15.6701 6.53389 16.699 7.52865C16.8334 7.65866 17.0186 7.7677 17.1991 7.81383C17.4598 7.87967 17.7248 7.71276 17.8469 7.47414C17.9775 7.21916 17.9335 6.94153 17.7137 6.72429C16.9921 6.01093 16.2667 5.30051 15.543 4.58883C15.2012 4.25291 14.8555 3.92035 14.5197 3.57898C13.9935 3.04469 14.0008 2.21769 14.5291 1.68843C15.0522 1.16421 15.9104 1.13989 16.4502 1.66537C18.0214 3.19441 19.5815 4.73478 21.1459 6.27137C23.0969 8.18833 25.0432 10.1099 26.9997 12.0218C28.9388 13.917 29.8895 16.2072 29.6523 18.8807C29.3531 22.2538 27.5856 24.7046 24.4343 26.0776C21.9797 27.1474 19.1403 26.4257 17.3011 24.4194C17.1825 24.2902 17.0651 24.1598 16.923 24.0034C19.0409 22.3611 20.6411 21.0216 21.4907 20.2584C21.7275 20.0457 22.1457 19.6603 22.3412 19.0359C22.476 18.6056 22.4833 18.1351 22.3582 17.6335C22.1009 16.6023 21.41 15.9434 20.3582 15.6943C19.5367 15.4997 18.7776 15.6826 18.1046 16.1871C16.5112 17.3827 14.9195 18.5809 13.327 19.7778C13.2771 19.8155 13.2233 19.8486 13.1525 19.8973C12.9873 19.7199 12.8247 19.5471 12.6643 19.3726C10.415 16.9252 8.16658 14.4773 5.91687 12.0302C5.38773 11.4548 5.40523 10.6308 5.96168 10.1078L5.96083 10.1074ZM3.69064 12.3443C3.72947 12.3032 3.76959 12.2638 3.81012 12.2248C3.99234 12.0495 4.10158 12.0504 4.27398 12.2357C4.98362 12.9994 5.69156 13.7639 6.40036 14.5284C8.44993 16.739 10.4991 18.9495 12.5486 21.1596C12.8397 21.4737 13.1802 21.5001 13.5314 21.2364C15.3279 19.8876 17.1219 18.536 18.9209 17.1902C19.5905 16.6895 20.5092 16.8665 20.9402 17.5656C21.2965 18.1435 21.1634 18.8623 20.6078 19.3181C19.2815 20.406 17.951 21.4888 16.6252 22.5767C15.6049 23.4142 14.591 24.2592 13.5702 25.0963C11.4562 26.8304 9.11093 27.1831 6.59964 26.0986C3.84213 24.908 2.13693 22.8249 1.49769 19.9266C1.3765 19.3768 1.34919 18.8073 1.31206 18.5113C1.34321 15.9774 2.12327 14.0076 3.69107 12.3439L3.69064 12.3443Z" fill="white"/>
</g>
<defs>
<clipPath id="clip0_111_4689">
<rect width="31" height="28" fill="white" transform="translate(31 28) rotate(180)"/>
</clipPath>
</defs>
</svg>
