<svg width="25" height="27" viewBox="0 0 25 27" fill="none" xmlns="http://www.w3.org/2000/svg">
<path d="M12.6719 20.2245C13.0078 22.4983 11.545 24.6608 9.49495 25.5106C8.70448 25.8383 7.89134 26.0553 7.037 26.1124C6.62494 26.1398 6.3468 25.9832 6.22249 25.6549C6.08651 25.2942 6.21013 24.8992 6.51025 24.656C6.76779 24.4472 7.01365 24.2233 7.25333 23.9938C7.33849 23.9128 7.39275 23.7987 7.45662 23.6971C7.61938 23.4381 7.60977 23.1702 7.41953 22.9442C7.23891 22.7292 7.01708 22.5478 6.80625 22.3596C6.77603 22.3321 6.69018 22.328 6.65516 22.3506C5.98212 22.7917 5.34961 23.2787 4.87436 23.9402C4.68688 24.2006 4.54128 24.4809 4.49115 24.8037C4.44376 25.1135 4.52136 25.3849 4.72327 25.6226C5.00279 25.9516 4.99936 26.3452 4.71641 26.6544C4.43964 26.9566 3.9747 27.0184 3.65535 26.7602C2.53248 25.8527 1.64449 24.7653 1.17062 23.3804C0.699492 22.0037 0.810748 20.6518 1.41648 19.3432C1.65822 18.8211 1.95834 18.3258 2.22 17.8402C2.16368 17.8979 2.06754 17.9686 2.00779 18.0627C1.83266 18.3382 1.65685 18.6157 1.50919 18.9056C1.32857 19.2594 1.08889 19.4043 0.706359 19.3432C0.354046 19.2869 0.0340118 18.9764 0.0134087 18.6411C-0.0497741 17.6444 0.104062 16.6895 0.608838 15.8116C1.13353 14.9 1.92606 14.3182 2.90196 13.9665C3.62444 13.7061 4.3689 13.566 5.1374 13.5639C5.16624 13.5639 5.19509 13.5612 5.24179 13.5591C5.2823 13.4004 5.32282 13.239 5.36472 13.0776C5.95191 10.8182 6.8969 8.72919 8.32538 6.87169C9.75523 5.0135 11.545 3.58809 13.6087 2.49447C15.5358 1.47298 17.5872 0.816259 19.7237 0.40684C21.0244 0.159539 22.332 -0.00601506 23.6582 0.000167456C23.889 0.00154135 24.1238 -0.00189338 24.3498 0.0372625C24.7934 0.113514 25.0276 0.43363 24.9974 0.882206C24.937 1.77661 24.9006 2.67376 24.8078 3.56473C24.4665 6.85314 23.6912 10.0193 22.0512 12.9237C20.6852 15.3424 18.846 17.3167 16.4409 18.7359C15.2968 19.4112 14.0798 19.9092 12.7791 20.1929C12.7461 20.1998 12.7145 20.2115 12.6733 20.2245H12.6719ZM15.6154 3.2769C15.5832 3.28858 15.5516 3.2982 15.5214 3.31125C13.5716 4.16443 11.8444 5.33499 10.4022 6.91084C8.67838 8.79514 7.54384 10.9954 6.89072 13.4554C6.85569 13.588 6.87149 13.6896 6.94154 13.8064C7.53903 14.7977 8.23335 15.7147 9.03756 16.5459C9.82666 17.3607 10.6961 18.0723 11.7167 18.5882C11.9556 18.7091 12.1727 18.7325 12.4302 18.6707C14.8167 18.1012 16.8242 16.8826 18.5109 15.1212C19.9414 13.6278 20.9661 11.8775 21.7201 9.96089C21.751 9.88257 21.7806 9.80289 21.808 9.73145C18.9861 8.29161 16.7898 6.27885 15.6141 3.2769H15.6154ZM2.43908 16.0273C2.45831 16.0431 2.46174 16.0479 2.46518 16.0486C2.48441 16.05 2.50364 16.052 2.52218 16.0507C3.19796 15.9964 3.77072 16.2416 4.31121 16.6249C4.69512 16.897 4.7425 17.5496 4.36066 17.8704C3.75493 18.3787 3.29411 19.0073 2.95416 19.7231C2.68769 20.2843 2.48715 20.8627 2.46243 21.492C2.43152 22.2977 2.65747 23.0335 3.05374 23.7245C3.07434 23.7596 3.10044 23.7919 3.13409 23.8399C3.19315 23.7211 3.24123 23.6181 3.29479 23.5171C3.69106 22.7752 4.26451 22.1858 4.91969 21.6747C5.33313 21.3518 5.76167 21.0461 6.19983 20.7583C6.49102 20.5666 6.81174 20.5866 7.12285 20.7487C7.60496 20.9994 8.05411 21.2962 8.4284 21.6939C8.92836 22.2242 9.20445 22.8384 9.12135 23.5823C9.10693 23.7094 9.07671 23.8351 9.05061 23.9808C9.10898 23.9526 9.15157 23.9334 9.19277 23.9114C10.4097 23.2519 11.0155 22.2119 11.1047 20.8476C11.1123 20.7336 11.078 20.6614 10.9976 20.5866C9.08701 18.7964 7.17848 17.0035 5.26651 15.2146C5.2205 15.1714 5.14014 15.1446 5.07559 15.1446C4.55158 15.1494 4.04131 15.2449 3.54272 15.4049C3.13478 15.5355 2.76049 15.7271 2.43771 16.0273H2.43908ZM22.3169 8.22223C22.9563 6.0398 23.2729 3.83127 23.3986 1.58083C21.2339 1.66601 19.1413 2.01429 17.0879 2.70467C18.0844 5.27042 19.9572 6.96099 22.3169 8.22223Z" fill="white"/>
<path d="M14.2813 14.5078C14.2799 13.9816 14.7029 13.5571 15.2256 13.5605C15.7324 13.564 16.15 13.9871 16.1493 14.4975C16.1493 15.0038 15.7283 15.4256 15.2201 15.429C14.7132 15.4325 14.2826 15.01 14.2813 14.5078Z" fill="white"/>
<path d="M16.364 12.381C16.366 11.8645 16.7877 11.4489 17.3062 11.4523C17.8048 11.4557 18.2217 11.8754 18.2231 12.3769C18.2251 12.9052 17.8034 13.327 17.2801 13.3201C16.7705 13.3132 16.3619 12.8942 16.3633 12.3804L16.364 12.381Z" fill="white"/>
</svg>
