<svg width="32" height="32" viewBox="0 0 32 32" fill="none" xmlns="http://www.w3.org/2000/svg">
<path d="M13.2727 1C10.8454 1 8.47257 1.71978 6.45434 3.06832C4.43611 4.41685 2.86309 6.33358 1.93421 8.57612C1.00532 10.8187 0.762278 13.2863 1.23582 15.6669C1.70936 18.0476 2.87822 20.2344 4.59458 21.9507C6.31095 23.6671 8.49773 24.836 10.8784 25.3095C13.2591 25.783 15.7267 25.54 17.9692 24.6111C20.2117 23.6822 22.1285 22.1092 23.477 20.091C24.8255 18.0728 25.5453 15.7 25.5453 13.2727C25.5451 10.0178 24.252 6.89633 21.9505 4.59481C19.649 2.29328 16.5275 1.00021 13.2727 1Z" stroke="white" stroke-width="2" stroke-miterlimit="10"/>
<path d="M22.4297 22.4289L31.0008 31" stroke="white" stroke-width="2" stroke-miterlimit="10" stroke-linecap="round"/>
</svg>
